<svg xmlns="http://www.w3.org/2000/svg" viewBox="0 0 500 500"><g id="freepik--background-simple--inject-2"><path d="M156.87,466.82s-89.36-33.92-130.73-139S133.7,149.1,132,133.38s-105.9-24-43.85-74.47S367.85,2.65,447.29,111,444,255,435.7,274s73.64,26.47,16.55,124.11S222.23,493.3,156.87,466.82Z" style="fill:#FF725E"></path><path d="M156.87,466.82s-89.36-33.92-130.73-139S133.7,149.1,132,133.38s-105.9-24-43.85-74.47S367.85,2.65,447.29,111,444,255,435.7,274s73.64,26.47,16.55,124.11S222.23,493.3,156.87,466.82Z" style="fill:#fff;opacity:0.7000000000000001"></path></g><g id="freepik--Crumbs--inject-2"><path d="M253.57,128.48a3.1,3.1,0,1,1-3.1-3.1A3.1,3.1,0,0,1,253.57,128.48Z" style="fill:#FF725E;stroke:#263238;stroke-miterlimit:10"></path><path d="M277.15,111.43a2.18,2.18,0,1,1-2.18-2.17A2.18,2.18,0,0,1,277.15,111.43Z" style="fill:#FF725E;stroke:#263238;stroke-miterlimit:10"></path><path d="M290.79,59.32A2.79,2.79,0,1,1,288,56.53,2.79,2.79,0,0,1,290.79,59.32Z" style="fill:#FF725E;stroke:#263238;stroke-miterlimit:10"></path><circle cx="127.04" cy="125.38" r="1.86" style="fill:#FF725E;stroke:#263238;stroke-miterlimit:10"></circle><circle cx="170.77" cy="229.9" r="3.41" style="fill:#FF725E;stroke:#263238;stroke-miterlimit:10"></circle><path d="M359,191.44a2.79,2.79,0,1,1-2.79-2.79A2.79,2.79,0,0,1,359,191.44Z" style="fill:#FF725E;stroke:#263238;stroke-miterlimit:10"></path></g><g id="freepik--Bucket--inject-2"><path d="M150.24,285.43,214.1,465.15c2.75,15.63,47.21,20.89,99.3,11.73s92.09-29.24,89.35-44.88l2.09-197Z" style="fill:#FF725E;stroke:#263238;stroke-miterlimit:10"></path><path d="M385.77,334c-22.87,55.18-48.16,103.51-74.85,143.35l2.48-.43c32.37-5.68,60.06-15.59,75.74-26q6.93-12.71,13.68-26.12l1.48-138.48C398.93,301,392.75,317.13,385.77,334Z" style="fill:#263238;stroke:#263238;stroke-miterlimit:10"></path><path d="M362,303.82c9.83-23.76,18.09-45.95,24.82-65.26l-61.07,12.1c-24.13,63.84-61.88,147.12-112.9,211.06l1.22,3.43c1.83,10.4,22.12,16.2,50.84,16.23C300.14,434.25,332.66,374.83,362,303.82Z" style="fill:#263238;stroke:#263238;stroke-miterlimit:10"></path><path d="M176.46,359.21,198.77,422c31.8-44.52,61.33-99.27,88.26-163.65l-63.63,12.6A813.85,813.85,0,0,1,176.46,359.21Z" style="fill:#263238;stroke:#263238;stroke-miterlimit:10"></path><ellipse cx="274.31" cy="254.42" rx="135.54" ry="35.36" transform="translate(-39.89 51.31) rotate(-9.97)" style="fill:#fff;stroke:#263238;stroke-miterlimit:10"></ellipse><ellipse cx="273.8" cy="251.49" rx="129.34" ry="28.74" transform="translate(-39.39 51.17) rotate(-9.97)" style="fill:#263238;stroke:#263238;stroke-miterlimit:10"></ellipse><path d="M349.37,151.58c-.77-11.41-7.21-25-18.41-29.37-11-4.31-24-.53-33.51,5.59-13.19,8.46-17.59,22.56-17.59,33.84s.55,13.53-1.65,21.43-3.3,13.53-3.3,18.61.55,14.66-5,25.38-12.64,19.17.55,24.81,21.44,8.46,24.74,3.39,3.85-15.79,6.6-23.69c2.19-6.3,6.85-17.25,15.88-26,3.41-2.37,8.12-3.45,12.14-5.71,4.22-2.38,5.8-4,8.71-5.28s2.37-3.17,2.11-6.86,3.17-4.49,5.54-8.71.53-5.81,1.85-11.88A55.72,55.72,0,0,0,349.37,151.58Z" style="fill:#FF725E;stroke:#263238;stroke-miterlimit:10"></path><path d="M336,163.92c1.13,1.64,2.07,3.21,1.83,4.9a49.61,49.61,0,0,1-1.77,7.11,11.69,11.69,0,0,1,1.77,3.55" style="fill:none;stroke:#263238;stroke-miterlimit:10"></path><path d="M326.73,134.68a22.1,22.1,0,0,1,3.1,3.5c8,11.1,2.22,17.76,3.55,21.31" style="fill:none;stroke:#263238;stroke-miterlimit:10"></path><path d="M311.18,131.07a15.78,15.78,0,0,1,12.76,1.54" style="fill:none;stroke:#263238;stroke-miterlimit:10"></path><path d="M319.14,152a16.8,16.8,0,0,1,4,4.79" style="fill:none;stroke:#263238;stroke-miterlimit:10"></path><path d="M300.07,148.84s8-2.22,15.17.86" style="fill:none;stroke:#263238;stroke-miterlimit:10"></path><path d="M319.26,190.05a16.16,16.16,0,0,1-2.76,3.2c-4.88,4.44-11.1,3.55-12.43,8.88s-.44,8.88-2.22,10.66a89,89,0,0,1-7.55,5.77" style="fill:none;stroke:#263238;stroke-miterlimit:10"></path><path d="M321,184.81a7.49,7.49,0,0,1-.71,3.4" style="fill:none;stroke:#263238;stroke-miterlimit:10"></path><path d="M270.32,244.76s4,6.22,8.88,5.78a15.33,15.33,0,0,0,8.44-4s3.55,2.66,4.88-.89a21,21,0,0,0,1.34-6.66" style="fill:none;stroke:#263238;stroke-miterlimit:10"></path><path d="M341.82,148.39s4,8.44,2.22,14.66-2.22,8.44-2.22,8.44" style="fill:none;stroke:#263238;stroke-miterlimit:10"></path><path d="M190.48,254.6s-2.63-28.33,13.14-40,38.84-2.34,44.1,4.67,6.42,22.49,5.84,38.84-8.76,19.57-8.76,19.57Z" style="fill:#FF725E;stroke:#263238;stroke-miterlimit:10"></path><path d="M202.35,242.38a8.19,8.19,0,0,0,3.32,2.42s-.61.9,1.2,2.11" style="fill:none;stroke:#263238;stroke-miterlimit:10"></path><path d="M201.31,222.66c-1.25,2.22-2.22,4.63-2,6.45.6,4.52,3.32,3.92,3.32,3.92a37.47,37.47,0,0,0-.88,5.7" style="fill:none;stroke:#263238;stroke-miterlimit:10"></path><path d="M205.67,216.43s-1.19,1.39-2.53,3.34" style="fill:none;stroke:#263238;stroke-miterlimit:10"></path><path d="M196.91,244.19s-.3,6.34,6.34,6.64" style="fill:none;stroke:#263238;stroke-miterlimit:10"></path><path d="M241.57,227a5.58,5.58,0,0,1-3.92,2.42" style="fill:none;stroke:#263238;stroke-miterlimit:10"></path><path d="M241,220.36a15.63,15.63,0,0,1,1,4.27" style="fill:none;stroke:#263238;stroke-miterlimit:10"></path><path d="M218.51,260.15s14.61-19.86,28.33-28.62,34.46-6.72,42.06-2.05,24.82,14.9,30.37,17.82,6.71,6.42,1.46,8.47-19.17,3.51-22,2.78-12.46,12.4-17.14,15.61-8.7,6.64-8.7,6.64-47.07-5.18-52.33-9.56S218.51,260.15,218.51,260.15Z" style="fill:#FF725E;stroke:#263238;stroke-miterlimit:10"></path><path d="M274.16,235.14s1.21,2.41-1.51,5.73a9.37,9.37,0,0,1-5.73,3.62,10.56,10.56,0,0,1-3,5.44c-2.41,2.11-4.52,3.92-4.52,3.92" style="fill:none;stroke:#263238;stroke-miterlimit:10"></path><path d="M240.67,264.41s3,3.32,4.83,1.21a38.74,38.74,0,0,0,3.62-5.43s4.36-.85,4.44-2.09-2.63-4.25-2.63-4.25" style="fill:none;stroke:#263238;stroke-miterlimit:10"></path><path d="M270.84,272.56s4.23,1.2,4.83-1.51a73.42,73.42,0,0,0,.9-8.45s3.93.9,4.53-1.51-1.21-4.83-1.21-4.83" style="fill:none;stroke:#263238;stroke-miterlimit:10"></path><path d="M334.25,219.84s16.18-7.55,30.93-8.63,25.17,4,27.68,12.23-10.39,25.18-10.39,25.18L366,256.24Z" style="fill:#FF725E;stroke:#263238;stroke-miterlimit:10"></path><path d="M389.21,228.26s1,2.45-.54,3a3,3,0,0,1-2.73-.4s.41,2.59-.41,3.54a4.26,4.26,0,0,1-2,1.23" style="fill:none;stroke:#263238;stroke-miterlimit:10"></path><path d="M374.63,217.21s1.9,4.91.68,7.23-1.91,3.41-1.91,3.41,2.45.41,1.36,2.31" style="fill:none;stroke:#263238;stroke-miterlimit:10"></path><path d="M366,256.24c-.44-7.16-.73-18.29,1.14-25,2.92-10.51,8.47-12.55,5-20.73s-12-3.21-12-3.21-10.51-.88-11.39,3.79-2,12.27-3.5,19-10.22,20.15-14.6,29.78c-2.11,4.64-3.61,7.64-4.59,9.52A349.12,349.12,0,0,0,366,256.24Z" style="fill:#FF725E;stroke:#263238;stroke-miterlimit:10"></path><path d="M332.21,267.67a36.58,36.58,0,0,0,2.53-13.36A166.34,166.34,0,0,0,361.32,252c12.27-2.34,20.73-5.84,17.81-13.14S359,222.77,359,222.77,305,205,295.9,214.3s-14,54.61-14.31,59.86a13.61,13.61,0,0,0,.52,5C300.13,275.93,317.07,272,332.21,267.67Z" style="fill:#FF725E;stroke:#263238;stroke-miterlimit:10"></path><path d="M336,232.81a8.07,8.07,0,0,1-.35,4.92c-1.87,4.12-2.62,6-2.62,6s2.62,2.62,1.87,4.87l-.75,2.24" style="fill:none;stroke:#263238;stroke-miterlimit:10"></path><path d="M334.13,228a16.92,16.92,0,0,1,1.11,2.34" style="fill:none;stroke:#263238;stroke-miterlimit:10"></path><path d="M316.82,246.29c-.54,6.89-2.45,15.3-6.65,19.15" style="fill:none;stroke:#263238;stroke-miterlimit:10"></path><path d="M311.67,220.5s5.24,5.62,4.49,9-3.37,3-1.87,6.37c1.37,3.08,2.74,2.09,2.68,7.35" style="fill:none;stroke:#263238;stroke-miterlimit:10"></path><path d="M366.71,243.34c-4.49,1.13-10.11-.74-10.48.75s-.75,2.62-4.12,3-5.62-.38-6.74-.38" style="fill:none;stroke:#263238;stroke-miterlimit:10"></path><path d="M373.08,238.48a10.19,10.19,0,0,1-3.4,3.58" style="fill:none;stroke:#263238;stroke-miterlimit:10"></path><path d="M272.89,280.8c-4.11-2.75-9.9-6.51-12.35-7.6-4-1.78-15.1-.89-24.43-4s-19.54-8.88-27.09-13.76-32.86-1.34-40.41,7.55a49,49,0,0,0-9.77,19.09l.11,1.22C179.53,289.62,223,289,272.89,280.8Z" style="fill:#FF725E;stroke:#263238;stroke-miterlimit:10"></path><line x1="215.32" y1="280.4" x2="218.04" y2="283.12" style="fill:none;stroke:#263238;stroke-miterlimit:10"></line><path d="M201.74,262.6c5.43,7.54,5.43,12.67,6.34,13.28s3.62-.91,5.43,1.81" style="fill:none;stroke:#263238;stroke-miterlimit:10"></path><path d="M193.6,256.56s1.52-.84,4.58,1.91" style="fill:none;stroke:#263238;stroke-miterlimit:10"></path><path d="M226.29,275.09A16.62,16.62,0,0,1,228.6,281" style="fill:none;stroke:#263238;stroke-miterlimit:10"></path><path d="M216.83,265.92s5.43,3,8.45,7.54" style="fill:none;stroke:#263238;stroke-miterlimit:10"></path><path d="M178.66,282.44a9.79,9.79,0,0,0,4.68.68,11.28,11.28,0,0,0,3.92-1.81" style="fill:none;stroke:#263238;stroke-miterlimit:10"></path><path d="M172.17,268s-3.32,1.81-2.71,3.62a39.8,39.8,0,0,0,1.81,4.23s-1.81.3-1.21,2.41-.3,4.22,2.72,3.62l3-.6s.51.24,1.29.55" style="fill:none;stroke:#263238;stroke-miterlimit:10"></path><path d="M244.8,277.67s3.41,2.43,5.82,1.83a4.16,4.16,0,0,0,3-2.42s2.11,1.51,3.92.61" style="fill:none;stroke:#263238;stroke-miterlimit:10"></path></g><g id="freepik--Chicken--inject-2"><path d="M203.44,41.18s-5.35,10.69-10.69,15.37S163.34,69.91,156.66,90s4,38.76,32.08,44.78S234.85,108,238.86,97.31s7.35-9.35,10.69-14a43.11,43.11,0,0,0,4.68-8,17.19,17.19,0,0,0,6.68,7.35c4.68,2.67,8.68,11.36,18.71,17.38s12,0,10-7.35-12-22.06-16.7-32.75S254.23,39.17,244.2,27.15s-19.38-9.36-26.73-3.35S204.77,37.17,203.44,41.18Z" style="fill:#FF725E;stroke:#263238;stroke-miterlimit:10"></path><path d="M260.15,67.08a29.34,29.34,0,0,0,2.09-3.85" style="fill:none;stroke:#263238;stroke-miterlimit:10"></path><path d="M254.23,75.26s1.49-1.83,3.25-4.25" style="fill:none;stroke:#263238;stroke-miterlimit:10"></path><path d="M226.16,31.16c-9.36.66-14.7,10.69-19.38,20.71" style="fill:none;stroke:#263238;stroke-miterlimit:10"></path><path d="M202.32,60.66c-3.14.46-6.39.12-8.41,1.3" style="fill:none;stroke:#263238;stroke-miterlimit:10"></path><path d="M219.63,42s-6.67,7-10.16,14a8.09,8.09,0,0,1-2.81,3.24" style="fill:none;stroke:#263238;stroke-miterlimit:10"></path><path d="M211.1,125.53c6.53-4.53,8.31-9.44,9.8-11.83" style="fill:none;stroke:#263238;stroke-miterlimit:10"></path><path d="M174.87,125.13s6.35,4.44,13,5.08a18,18,0,0,0,11.43-2.86s1.61,2.14,5.63,1.21" style="fill:none;stroke:#263238;stroke-miterlimit:10"></path><path d="M216.56,64a34.41,34.41,0,0,1-6.46,5.87" style="fill:none;stroke:#263238;stroke-miterlimit:10"></path><path d="M238.21,38.35a31.29,31.29,0,0,0-9.06,7.1c-5.36,5.72-7.1,10.12-9.63,14.36" style="fill:none;stroke:#263238;stroke-miterlimit:10"></path><path d="M244.39,37.2a4.62,4.62,0,0,0-1.6-.13" style="fill:none;stroke:#263238;stroke-miterlimit:10"></path><path d="M279.62,77.2S285,84.81,283.75,88,279,90.53,279,90.53s1.9,4.12-.95,4.44a6.75,6.75,0,0,1-4.77-1.27" style="fill:none;stroke:#263238;stroke-miterlimit:10"></path><path d="M179.55,103.31c1.06-1.11,1.81-2.29,2.3-2.62,1-.64,4.13,0,6.67-2.23a9.53,9.53,0,0,0,2.86-5.71" style="fill:none;stroke:#263238;stroke-miterlimit:10"></path><path d="M161.22,97.19s-.95,5.4,2.54,7.94,7.93-.64,7.93-.64,1,1.27,4.13,1" style="fill:none;stroke:#263238;stroke-miterlimit:10"></path><path d="M233.57,159.93s-15.71,5.1-47.13-4.32-56.54-18.46-78.14-14.53a38.5,38.5,0,0,0-31,28.27c-1.57,7.07-8.64,7.86-6.68,13.36S78.85,191,80,192.13s-1.17,4.32,5.5,8.25,13.35,2.75,13.75,5.1,3.92,6.68,5.49,6.68,3.93-2.75,7.07-.79,3.14,3.54,10.61,3.14,27.88-3.92,34.94-7.07,25.53-16.1,36.92-16.88,20.42.39,23.95,1.57,13,2.75,16.49,3.93,8.64-2,10.21-5.11a30.77,30.77,0,0,0,2.75-13.35A33.59,33.59,0,0,0,245,164.25C243.38,160.32,238.67,159.14,233.57,159.93Z" style="fill:#FF725E;stroke:#263238;stroke-miterlimit:10"></path><path d="M96,176.24a33.1,33.1,0,0,0-5.78,5.68c-9,11-2.74,15.71-2.74,15.71" style="fill:none;stroke:#263238;stroke-miterlimit:10"></path><path d="M114.58,152.86a17.66,17.66,0,0,0-9,3.54c-3.53,2.74-2.75,4.71-2.75,12.17,0,4.38-1.22,4.43-4,5.94" style="fill:none;stroke:#263238;stroke-miterlimit:10"></path><path d="M109.91,146a30.78,30.78,0,0,0-6.72,2.11c-7.46,3.53-8.64,6.67-8.24,11s1.18,7.07-2.75,8.64-6.28.4-9.43,6.68-3.14,10.6-3.14,10.6" style="fill:none;stroke:#263238;stroke-miterlimit:10"></path><path d="M124,144.61a81.92,81.92,0,0,0-8.78.58" style="fill:none;stroke:#263238;stroke-miterlimit:10"></path><path d="M142.46,170.92s8.64-8.63,13.75-8.63,8.24,2.74,10.6.78,5.89-4.71,8.64-4.71a8.2,8.2,0,0,1,4.71,1.57" style="fill:none;stroke:#263238;stroke-miterlimit:10"></path><path d="M239.06,166.61s5.89.39,1.57,7.06-7.85,10.21-6.28,11,5.5,1.57,2,3.93" style="fill:none;stroke:#263238;stroke-miterlimit:10"></path><path d="M160.49,192.19c4.84.76,8.63,2.16,12.1,1.3" style="fill:none;stroke:#263238;stroke-miterlimit:10"></path><path d="M102.14,201.57s2.31-8.66,13.86-10.39,19.06,4,20.79,4,11-3.47,18.48-3.47" style="fill:none;stroke:#263238;stroke-miterlimit:10"></path></g></svg>
