<svg xmlns="http://www.w3.org/2000/svg" viewBox="0 0 500 500"><g id="freepik--background-simple--inject-481"><path d="M485.64,265.12c.09-1.08.17-2.15.31-3.22,1.5-11.49,8.48-97.87-100-206.5C269.31-61.36,141.86,69.78,119.85,104.06S91.42,191,74.43,156.34c-10.5-21.42,16.88-48.23-21.91-37-24.88,7.19-71.1,70.78-33.21,180S163.61,492,265.88,485.88c131.52-7.81,209-103.19,202.81-110.28s-55.13,14.06-44.37-.67C434.91,360.42,482.55,305.66,485.64,265.12Z" style="fill:#FF725E"></path><path d="M485.64,265.12c.09-1.08.17-2.15.31-3.22,1.5-11.49,8.48-97.87-100-206.5C269.31-61.36,141.86,69.78,119.85,104.06S91.42,191,74.43,156.34c-10.5-21.42,16.88-48.23-21.91-37-24.88,7.19-71.1,70.78-33.21,180S163.61,492,265.88,485.88c131.52-7.81,209-103.19,202.81-110.28s-55.13,14.06-44.37-.67C434.91,360.42,482.55,305.66,485.64,265.12Z" style="fill:#fff;opacity:0.8"></path></g><g id="freepik--Plants--inject-481"><path d="M433.18,228.79s-9.79-.27-24.2-1.89S374.05,218,374.05,218s11,7.83,19.2,10.2,23.65,5.32,32.88,3.1-.62,3.82-12.42,5.33-38.12-1.91-39.11-2.13,10.37,1.77,23.26,4.67,27.39,1.72,34.88-6.86c0,0-9.14,8.21-13.15,13.68s-7.46,14.67-7.64,15.47,17.33-19.95,21.34-25.42a58.94,58.94,0,0,0,5.32-8.23s-.17,3.84,4.51,12.38,10.51,18.16,10.51,18.16-5.82-17.39-8.31-24.87-3.72-9.71-3.72-9.71-3.66.84-14.06-2.33-24.27-11-24.27-11,11.53,9,17.84,11.77,15.75,4.09,15.75,4.09Z" style="fill:#FF725E;stroke:#263238;stroke-linecap:round;stroke-linejoin:round"></path><path d="M436.86,226.29s7.22-5.86,11.18-8l4-2.16a90.72,90.72,0,0,1-9.31,1.24c-2.43,0-16.82-2.4-20.28-4,0,0,14.78,2.22,22.65,1.21a117.51,117.51,0,0,0,17.59-4.09c1.11-.3-6.81,4-7.34,6.39s-1.94,4,1.59,11.45a75.35,75.35,0,0,0,8.15,13.19s-12-9.9-13.44-14.38a13.26,13.26,0,0,1,.13-8.29l-10.4,7.64" style="fill:#FF725E;stroke:#263238;stroke-linecap:round;stroke-linejoin:round"></path><path d="M329.64,151.33s12.34-2.22,30.26-7.07,42.48-18,42.48-18-12.41,12-22.32,16.63-28.91,11.29-41,10.27,1.52,4.71,16.74,4.34,47.87-9.78,49.09-10.25-12.78,4.24-28.54,10.4-34.34,7.47-45.46-1.94c0,0,13.14,8.62,19.27,14.77s12.28,17.13,12.66,18.1-25.78-21.89-31.91-28a77.32,77.32,0,0,1-8.33-9.39s1,4.83-3.32,16.54-9.79,25-9.79,25,4-23.13,5.71-33.08,2.84-13,2.84-13,4.79.35,17.35-5.67S364,122.32,364,122.32s-12.86,13.57-20.31,18.34-19.15,8.22-19.15,8.22Z" style="fill:#FF725E;stroke:#263238;stroke-linecap:round;stroke-linejoin:round"></path><path d="M324.49,148.88s-10.27-6-15.69-8l-5.43-2s8.94.23,12-.23,20.83-6.28,24.9-9c0,0-18.28,5.66-28.43,5.91s-21.59-1.61-23.05-1.78,9.39,3.77,10.52,6.67,3.23,4.69.19,14.79a96.46,96.46,0,0,1-7.76,18.28s13.29-14.86,14.23-20.8a16.92,16.92,0,0,0-1.76-10.46L318.86,150" style="fill:#FF725E;stroke:#263238;stroke-linecap:round;stroke-linejoin:round"></path><path d="M314.09,201.72s7.16-.19,17.69-1.38,25.54-6.52,25.54-6.52-8,5.72-14,7.46-17.3,3.88-24,2.26.45,2.8,9.08,3.9,27.87-1.4,28.59-1.56-7.58,1.3-17,3.41-20,1.26-25.5-5c0,0,6.67,6,9.61,10a49.86,49.86,0,0,1,5.58,11.31c.13.58-12.67-14.58-15.6-18.58a44.07,44.07,0,0,1-3.89-6s.13,2.81-3.3,9-7.68,13.28-7.68,13.28,4.26-12.71,6.07-18.19a50.1,50.1,0,0,1,2.72-7.09s2.68.61,10.29-1.7,17.74-8,17.74-8-8.43,6.55-13,8.6a51.69,51.69,0,0,1-11.51,3Z" style="fill:#FF725E;stroke:#263238;stroke-linecap:round;stroke-linejoin:round"></path><path d="M311.4,199.89a79.21,79.21,0,0,0-8.17-5.86l-2.9-1.58a65,65,0,0,0,6.81.9c1.77,0,12.3-1.75,14.83-2.92,0,0-10.81,1.62-16.56.88a84.92,84.92,0,0,1-12.86-3c-.81-.22,5,2.94,5.36,4.67s1.42,2.93-1.16,8.37a54.9,54.9,0,0,1-6,9.65s8.78-7.24,9.83-10.52a9.66,9.66,0,0,0-.1-6.06l7.61,5.59" style="fill:#FF725E;stroke:#263238;stroke-linecap:round;stroke-linejoin:round"></path></g><g id="freepik--Chopsticks--inject-481"><path d="M39.41,274.77S239.94,478.56,242.78,479.13s10.24-3.41,11.38-4.27.85-6.22.85-6.22S43.41,276.34,42.27,274.92,39.41,274.77,39.41,274.77Z" style="opacity:0.18"></path><path d="M50.4,273.61S274.64,449,277.77,448.13s10-6.83,10.52-9.39S53.36,271.5,53.36,271.5,47.44,270.6,50.4,273.61Z" style="opacity:0.18"></path><path d="M51.86,268.77c-2.35-.35-3.43,3.33-1.46,4.84C74.26,291.94,270,442.32,273.21,443.23c3.41,1,12.8-4.85,12.8-8.74S53.1,269.35,53.1,269.35A2.5,2.5,0,0,0,51.86,268.77Z" style="fill:#fff;stroke:#263238;stroke-linecap:round;stroke-linejoin:round"></path><path d="M146.74,344.9c29.57,22.88,124.74,96.34,126.69,95.6,2.32-.88,8.49-5.71,8.49-5.71" style="fill:none;stroke:#263238;stroke-linecap:round;stroke-linejoin:round"></path><path d="M138.07,338.18l5,3.84" style="fill:none;stroke:#263238;stroke-linecap:round;stroke-linejoin:round"></path><path d="M41.41,270.19c-2.3-.7-3.78,2.79-2,4.58C61,296.43,238.26,474.08,241.34,475.45c3.27,1.46,13.23-3,13.67-6.81S42.56,270.94,42.56,270.94A2.52,2.52,0,0,0,41.41,270.19Z" style="fill:#fff;stroke:#263238;stroke-linecap:round;stroke-linejoin:round"></path><path d="M127,359.5c26.76,27,112.9,113.72,114.92,113.27,2.39-.54,9-4.43,9-4.43" style="fill:none;stroke:#263238;stroke-linecap:round;stroke-linejoin:round"></path><path d="M119.11,351.58l4.48,4.53" style="fill:none;stroke:#263238;stroke-linecap:round;stroke-linejoin:round"></path></g><g id="freepik--tofu-2--inject-481"><ellipse cx="373.57" cy="326.68" rx="104.41" ry="57.86" style="opacity:0.18"></ellipse><path d="M480.21,306.09c0,34.58-50.25,67.83-107.2,67.83S266.08,338,266.08,303.42c0-25.78,50-52.88,106.93-52.88S480.21,279.1,480.21,306.09Z" style="fill:#d6d6d6;stroke:#263238;stroke-linecap:round;stroke-linejoin:round"></path><ellipse cx="373.01" cy="303.42" rx="106.93" ry="54.71" style="fill:#fff;stroke:#263238;stroke-linecap:round;stroke-linejoin:round"></ellipse><ellipse cx="373.01" cy="318.62" rx="83.74" ry="38.48" style="fill:#FF725E"></ellipse><ellipse cx="373.01" cy="318.62" rx="83.74" ry="38.48" style="opacity:0.28"></ellipse><path d="M374.41,232s-57.09,23.07-61.12,25.37-4.33,2.31-4,3.46-.86,50.74-.57,51.89,56.21,37.19,58.23,37.19,67.17-34.3,68.32-35.17-.57-49-.86-50.45-52.47-31.13-53.91-32S375.85,230.56,374.41,232Z" style="fill:#fff"></path><path d="M321.58,266a20.31,20.31,0,0,0,.93,8.38,35.5,35.5,0,0,1,1.68,9.69c0,.93.56,38.57,1.49,39.5s4.66,4.48,5.22,2.43.37-28.14,1.49-36.53.37-11.55,2.42-9.13,3.91,5.22,2.61,20.31a129.47,129.47,0,0,0,1.12,30c.18.74,6.52,4.47,6.52,4.47s-4.1-26.46-1.49-22S346.74,323,347.3,327s.74,9.87,1.86,10.81,16.58,10.06,16.4,8.19.93-46,2.23-43.78,1.31,33.54,1.49,37.26.38,4.1,1.49,3.92,1.49-3.92,1.49-12.3-1.11-16,0-18.45,3.17-1.86,3.54,2,1.12,21.06,1.87,24.41,4.84,1.68,5.77,1.49,3.36-2.61,5.41-3.17,33.91-15.84,34.47-17.89.19-9.5.93-11.36,2.61-3.54,2.61-8.95-1.49-5.77.37-14.34,4.48-14.72,4.48-15.84,0-3-2.24-3.73S321.58,266,321.58,266Z" style="fill:#FF725E"></path><path d="M380.46,232.29c-1.44-.86-4.61-1.73-6-.29,0,0-57.09,23.07-61.12,25.37-2.6,1.49-3.64,2-4,2.51l2.25,1.53s49.58,27.39,51.6,28.54,3.17,3.17,5.48,4.32,3.17,0,4.61-1.44,3.46-3.17,3.46-3.17,27.68-8.94,32.29-11.82,4.61-3.17,7.78-4.32,2.89-2,5.77-2.89,4-.57,5.76-1.73,6.06-4.61,6.06-4.61L423.05,257C407.54,247.74,381.47,232.9,380.46,232.29Z" style="fill:#FF725E"></path><path d="M380.46,232.29c-1.44-.86-4.61-1.73-6-.29,0,0-57.09,23.07-61.12,25.37-2.6,1.49-3.64,2-4,2.51l2.25,1.53s49.58,27.39,51.6,28.54,3.17,3.17,5.48,4.32,3.17,0,4.61-1.44,3.46-3.17,3.46-3.17,27.68-8.94,32.29-11.82,4.61-3.17,7.78-4.32,2.89-2,5.77-2.89,4-.57,5.76-1.73,6.06-4.61,6.06-4.61L423.05,257C407.54,247.74,381.47,232.9,380.46,232.29Z" style="opacity:0.28"></path><path d="M374.41,232s-57.09,23.07-61.12,25.37-4.33,2.31-4,3.46-.86,50.74-.57,51.89,56.21,37.19,58.23,37.19,67.17-34.3,68.32-35.17-.57-49-.86-50.45-52.47-31.13-53.91-32S375.85,230.56,374.41,232Z" style="fill:none;stroke:#263238;stroke-linecap:round;stroke-linejoin:round"></path><path d="M436.66,332.9c0,.52-1.72.94-2.76.94s-2.54-.42-2.54-.94,1.5-.95,2.54-.95S436.66,332.38,436.66,332.9Z" style="fill:#fff"></path><path d="M440.48,335.2c0,.52-1.71.95-2.75.95s-2.54-.43-2.54-.95,1.49-.94,2.54-.94S440.48,334.68,440.48,335.2Z" style="fill:#fff"></path><path d="M405.17,351.71c0,.52-1.71.94-2.75.94s-2.54-.42-2.54-.94,1.49-.95,2.54-.95S405.17,351.19,405.17,351.71Z" style="fill:#fff"></path><path d="M410.27,344.67c0,.52-1.72.94-2.76.94s-2.54-.42-2.54-.94,1.5-.94,2.54-.94S410.27,344.15,410.27,344.67Z" style="fill:#fff"></path><path d="M384.1,349.62c0,.52-1.71.94-2.75.94s-2.54-.42-2.54-.94,1.5-.95,2.54-.95S384.1,349.09,384.1,349.62Z" style="fill:#fff"></path><path d="M387.93,351.92c0,.52-1.72.94-2.76.94s-2.54-.42-2.54-.94,1.5-.94,2.54-.94S387.93,351.4,387.93,351.92Z" style="fill:#fff"></path><path d="M357.21,352.29c0,.52-1.71.94-2.76.94s-2.53-.42-2.53-.94,1.49-.94,2.53-.94S357.21,351.77,357.21,352.29Z" style="fill:#fff"></path><path d="M445.36,328.17c0,.52-1.72.94-2.76.94s-2.53-.42-2.53-.94,1.49-.95,2.53-.95S445.36,327.65,445.36,328.17Z" style="fill:#fff"></path><path d="M448.15,312.27c0,.52-1.71.94-2.76.94s-2.53-.42-2.53-.94,1.49-.94,2.53-.94S448.15,311.75,448.15,312.27Z" style="fill:#fff"></path><path d="M450.7,329.62c0,.52-1.72.95-2.76.95s-2.54-.43-2.54-.95,1.5-.94,2.54-.94S450.7,329.1,450.7,329.62Z" style="fill:#fff"></path><path d="M427.64,342.21c0,.42-1.37.76-2.2.76s-2-.34-2-.76,1.19-.75,2-.75S427.64,341.8,427.64,342.21Z" style="fill:#fff"></path><path d="M442.2,322.68c0,.42-1.37.75-2.2.75s-2-.33-2-.75,1.19-.76,2-.76S442.2,322.26,442.2,322.68Z" style="fill:#fff"></path><path d="M441.65,303.53c0,.42-1.37.76-2.2.76s-2-.34-2-.76,1.19-.75,2-.75S441.65,303.12,441.65,303.53Z" style="fill:#fff"></path><path d="M446.81,305.43c0,.36-1,.65-1.62.65s-1.5-.29-1.5-.65.88-.65,1.5-.65S446.81,305.07,446.81,305.43Z" style="fill:#fff"></path><path d="M453.29,311.5c0,.36-1,.65-1.62.65s-1.5-.29-1.5-.65.88-.65,1.5-.65S453.29,311.14,453.29,311.5Z" style="fill:#fff"></path><path d="M423.93,328.49c0,.36-1,.65-1.63.65s-1.49-.29-1.49-.65.88-.65,1.49-.65S423.93,328.13,423.93,328.49Z" style="fill:#fff"></path><path d="M436.92,341.39c0,.42-1.37.76-2.21.76s-2-.34-2-.76,1.2-.75,2-.75S436.92,341,436.92,341.39Z" style="fill:#fff"></path><path d="M409.25,339.45c0,.42-1.37.76-2.2.76s-2-.34-2-.76,1.19-.75,2-.75S409.25,339,409.25,339.45Z" style="fill:#fff"></path><path d="M439,329.74c0,.42-1.37.76-2.2.76s-2-.34-2-.76,1.19-.75,2-.75S439,329.33,439,329.74Z" style="fill:#fff"></path><path d="M325.22,342.59c0,.52-1.72.94-2.76.94s-2.54-.42-2.54-.94,1.5-.95,2.54-.95S325.22,342.07,325.22,342.59Z" style="fill:#fff"></path><path d="M329,344.89c0,.52-1.71.95-2.75.95s-2.54-.43-2.54-.95,1.5-.94,2.54-.94S329,344.37,329,344.89Z" style="fill:#fff"></path><path d="M333.92,337.86c0,.52-1.71.94-2.76.94s-2.53-.42-2.53-.94,1.49-.95,2.53-.95S333.92,337.33,333.92,337.86Z" style="fill:#fff"></path><path d="M327.54,339.43c0,.42-1.37.76-2.2.76s-2-.34-2-.76,1.19-.75,2-.75S327.54,339,327.54,339.43Z" style="fill:#fff"></path><path d="M453.39,319.4c0,.42-1.37.76-2.21.76s-2-.34-2-.76,1.2-.75,2-.75S453.39,319,453.39,319.4Z" style="fill:#fff"></path><path d="M415.87,344.11c0,.39-1.13.71-1.82.71s-1.69-.32-1.69-.71,1-.71,1.69-.71S415.87,343.72,415.87,344.11Z" style="fill:#fff"></path><path d="M392.63,344.55c0,.39-1.14.71-1.83.71s-1.68-.32-1.68-.71,1-.71,1.68-.71S392.63,344.16,392.63,344.55Z" style="fill:#fff"></path><path d="M311.15,333.28c0,.39-1.14.71-1.83.71s-1.68-.32-1.68-.71,1-.7,1.68-.7S311.15,332.89,311.15,333.28Z" style="fill:#fff"></path><path d="M321.92,335.37c0,.39-1.14.71-1.83.71s-1.68-.32-1.68-.71,1-.71,1.68-.71S321.92,335,321.92,335.37Z" style="fill:#fff"></path><path d="M339.17,347.82c0,.39-1.13.71-1.82.71s-1.69-.32-1.69-.71,1-.71,1.69-.71S339.17,347.43,339.17,347.82Z" style="fill:#fff"></path><path d="M318.68,327.51c0,.39-1.14.71-1.83.71s-1.68-.32-1.68-.71,1-.71,1.68-.71S318.68,327.12,318.68,327.51Z" style="fill:#fff"></path><path d="M351.73,346.74c0,.39-1.14.71-1.83.71s-1.68-.32-1.68-.71,1-.71,1.68-.71S351.73,346.35,351.73,346.74Z" style="fill:#fff"></path><path d="M409.42,331.1s13.08-6.88,16.33-8.18,8.14-3.59,9.36-4.56c2.28-1.83,3.06-2.95,1.59-3.28s-31.18,17.32-31.18,17.32Z" style="fill:#fff"></path><path d="M389.92,340s-14.61,6.85-13.24,7.53,6.39-2.28,9.58-3.19S394.25,338.44,389.92,340Z" style="fill:#fff"></path><path d="M352.2,262.73c0,.53-1.72.95-2.76.95s-2.54-.42-2.54-.95,1.5-.94,2.54-.94S352.2,262.21,352.2,262.73Z" style="fill:#fff"></path><path d="M349,258.26c0,.52-1.72.95-2.76.95s-2.53-.43-2.53-.95,1.49-.94,2.53-.94S349,257.74,349,258.26Z" style="fill:#fff"></path><path d="M356,265c0,.52-1.71.94-2.75.94s-2.54-.42-2.54-.94,1.49-.94,2.54-.94S356,264.52,356,265Z" style="fill:#fff"></path><path d="M360.9,258c0,.52-1.72.95-2.76.95s-2.53-.43-2.53-.95,1.49-.94,2.53-.94S360.9,257.48,360.9,258Z" style="fill:#fff"></path><path d="M417.73,263.78c0,.52-1.71.94-2.75.94s-2.54-.42-2.54-.94,1.49-.94,2.54-.94S417.73,263.26,417.73,263.78Z" style="fill:#fff"></path><path d="M393.4,245.52c0,.52-1.72.94-2.76.94s-2.54-.42-2.54-.94,1.5-.94,2.54-.94S393.4,245,393.4,245.52Z" style="fill:#fff"></path><path d="M377.93,243.47c0,.52-1.71.94-2.76.94s-2.53-.42-2.53-.94,1.49-.94,2.53-.94S377.93,243,377.93,243.47Z" style="fill:#fff"></path><path d="M409.72,272.16c0,.53-1.71.95-2.76.95s-2.53-.42-2.53-.95,1.49-.94,2.53-.94S409.72,271.64,409.72,272.16Z" style="fill:#fff"></path><path d="M416.24,271.05c0,.52-1.71.94-2.75.94s-2.54-.42-2.54-.94,1.49-.95,2.54-.95S416.24,270.53,416.24,271.05Z" style="fill:#fff"></path><path d="M407.07,275.32c0,.52-1.71.94-2.76.94s-2.53-.42-2.53-.94,1.49-.94,2.53-.94S407.07,274.8,407.07,275.32Z" style="fill:#fff"></path><path d="M379.23,277.2c0,.52-1.71.94-2.75.94s-2.54-.42-2.54-.94,1.5-.95,2.54-.95S379.23,276.68,379.23,277.2Z" style="fill:#fff"></path><path d="M371,283c0,.52-1.72.95-2.76.95s-2.53-.43-2.53-.95,1.49-.94,2.53-.94S371,282.45,371,283Z" style="fill:#fff"></path><path d="M379.94,285.58c0,.52-1.71.94-2.75.94s-2.54-.42-2.54-.94,1.5-.94,2.54-.94S379.94,285.06,379.94,285.58Z" style="fill:#fff"></path><path d="M377.15,287.26c0,.52-1.72.94-2.76.94s-2.54-.42-2.54-.94,1.5-.94,2.54-.94S377.15,286.74,377.15,287.26Z" style="fill:#fff"></path><path d="M372.67,290.05c0,.52-1.71.95-2.75.95s-2.54-.43-2.54-.95,1.5-.94,2.54-.94S372.67,289.53,372.67,290.05Z" style="fill:#fff"></path><path d="M373.34,285.94c0,.52-1.71.95-2.75.95s-2.54-.43-2.54-.95,1.5-.94,2.54-.94S373.34,285.42,373.34,285.94Z" style="fill:#fff"></path><path d="M335.7,262.65c0,.52-1.71.94-2.75.94s-2.54-.42-2.54-.94,1.5-.94,2.54-.94S335.7,262.13,335.7,262.65Z" style="fill:#fff"></path><path d="M366.24,259.46c0,.52-1.72.94-2.76.94s-2.54-.42-2.54-.94,1.5-.94,2.54-.94S366.24,258.94,366.24,259.46Z" style="fill:#fff"></path><path d="M397.42,260.05c0,.52-1.71.95-2.75.95s-2.54-.43-2.54-.95,1.49-.94,2.54-.94S397.42,259.53,397.42,260.05Z" style="fill:#fff"></path><path d="M382.33,273.84c0,.52-1.72.94-2.76.94s-2.54-.42-2.54-.94,1.5-.94,2.54-.94S382.33,273.32,382.33,273.84Z" style="fill:#fff"></path><path d="M396.34,268.81c0,.52-1.71.94-2.76.94s-2.53-.42-2.53-.94,1.49-.94,2.53-.94S396.34,268.29,396.34,268.81Z" style="fill:#fff"></path><path d="M343.18,272.05c0,.42-1.37.76-2.2.76s-2-.34-2-.76,1.19-.75,2-.75S343.18,271.64,343.18,272.05Z" style="fill:#fff"></path><path d="M371,265.08c0,.42-1.37.76-2.21.76s-2-.34-2-.76,1.2-.75,2-.75S371,264.67,371,265.08Z" style="fill:#fff"></path><path d="M364,273.1c0,.41-1.37.75-2.21.75s-2-.34-2-.75,1.2-.76,2-.76S364,272.68,364,273.1Z" style="fill:#fff"></path><path d="M357.74,252.52c0,.41-1.37.75-2.2.75s-2-.34-2-.75,1.19-.76,2-.76S357.74,252.1,357.74,252.52Z" style="fill:#fff"></path><path d="M385.49,253.53c0,.42-1.37.76-2.2.76s-2-.34-2-.76,1.2-.75,2-.75S385.49,253.11,385.49,253.53Z" style="fill:#fff"></path><path d="M374.5,268.07c0,.41-1.37.75-2.2.75s-2-.34-2-.75,1.2-.76,2-.76S374.5,267.65,374.5,268.07Z" style="fill:#fff"></path><path d="M371.59,258.19c0,.42-1.37.75-2.21.75s-2-.33-2-.75,1.2-.76,2-.76S371.59,257.77,371.59,258.19Z" style="fill:#fff"></path><path d="M407,257.82c0,.41-1.37.75-2.2.75s-2-.34-2-.75,1.19-.76,2-.76S407,257.4,407,257.82Z" style="fill:#fff"></path><path d="M386.12,264.71c0,.42-1.37.76-2.2.76s-2-.34-2-.76,1.19-.75,2-.75S386.12,264.29,386.12,264.71Z" style="fill:#fff"></path><path d="M366.56,240.3c0,.42-1.37.76-2.21.76s-2-.34-2-.76,1.2-.75,2-.75S366.56,239.88,366.56,240.3Z" style="fill:#fff"></path><path d="M377.45,239c0,.41-1.37.75-2.2.75s-2-.34-2-.75,1.2-.76,2-.76S377.45,238.59,377.45,239Z" style="fill:#fff"></path><path d="M403.2,264.15c0,.42-1.37.76-2.21.76s-2-.34-2-.76,1.2-.75,2-.75S403.2,263.74,403.2,264.15Z" style="fill:#fff"></path><path d="M339.47,258.32c0,.36-1,.65-1.63.65s-1.49-.29-1.49-.65.88-.65,1.49-.65S339.47,258,339.47,258.32Z" style="fill:#fff"></path><path d="M353.33,245.15c0,.35-1,.65-1.63.65s-1.49-.3-1.49-.65.88-.65,1.49-.65S353.33,244.79,353.33,245.15Z" style="fill:#fff"></path><path d="M346.25,247.57c0,.36-1,.65-1.63.65s-1.5-.29-1.5-.65.89-.65,1.5-.65S346.25,247.21,346.25,247.57Z" style="fill:#fff"></path><path d="M352.46,271.23c0,.42-1.37.75-2.21.75s-2-.33-2-.75,1.2-.76,2-.76S352.46,270.81,352.46,271.23Z" style="fill:#fff"></path><path d="M397.39,273.09c0,.41-1.37.75-2.21.75s-2-.34-2-.75,1.2-.76,2-.76S397.39,272.67,397.39,273.09Z" style="fill:#fff"></path><path d="M369.54,274.4c0,.42-1.37.76-2.21.76s-2-.34-2-.76,1.2-.75,2-.75S369.54,274,369.54,274.4Z" style="fill:#fff"></path><path d="M354.52,259.58c0,.42-1.37.76-2.2.76s-2-.34-2-.76,1.19-.75,2-.75S354.52,259.16,354.52,259.58Z" style="fill:#fff"></path><path d="M368.93,249.24c0,.42-1.37.75-2.21.75s-2-.33-2-.75,1.2-.76,2-.76S368.93,248.82,368.93,249.24Z" style="fill:#fff"></path><path d="M390.87,308.74c0,1.41-.54,2.56-1.21,2.56s-1.21-1.15-1.21-2.56.54-2.57,1.21-2.57S390.87,307.32,390.87,308.74Z" style="opacity:0.28"></path><path d="M353.57,310.86c0,1.42-.55,2.57-1.21,2.57s-1.21-1.15-1.21-2.57.54-2.57,1.21-2.57S353.57,309.44,353.57,310.86Z" style="opacity:0.28"></path><path d="M330.31,286.51c0,1.42-.55,2.57-1.21,2.57s-1.21-1.15-1.21-2.57.54-2.57,1.21-2.57S330.31,285.09,330.31,286.51Z" style="opacity:0.28"></path><path d="M341.27,320.64c0,1.42-.54,2.57-1.21,2.57s-1.2-1.15-1.2-2.57.54-2.57,1.2-2.57S341.27,319.22,341.27,320.64Z" style="opacity:0.28"></path><path d="M395.91,303.41c0,1.42-.55,2.57-1.21,2.57s-1.21-1.15-1.21-2.57.54-2.57,1.21-2.57S395.91,302,395.91,303.41Z" style="opacity:0.28"></path><path d="M427.34,278c0,1.42-.54,2.57-1.21,2.57s-1.2-1.15-1.2-2.57.54-2.57,1.2-2.57S427.34,276.55,427.34,278Z" style="opacity:0.28"></path><path d="M387.18,333.21c0,1.42-.54,2.57-1.21,2.57s-1.2-1.15-1.2-2.57.54-2.56,1.2-2.56S387.18,331.8,387.18,333.21Z" style="opacity:0.28"></path><path d="M382.93,297.19c0,1.42-.54,2.57-1.21,2.57s-1.2-1.15-1.2-2.57.54-2.57,1.2-2.57S382.93,295.77,382.93,297.19Z" style="opacity:0.28"></path><ellipse cx="376.09" cy="304.1" rx="1.21" ry="2.57" style="opacity:0.28"></ellipse><path d="M401.16,314.87c0,.94-.36,1.7-.8,1.7s-.8-.76-.8-1.7.36-1.7.8-1.7S401.16,313.93,401.16,314.87Z" style="opacity:0.28"></path><path d="M416.4,296.14c0,.94-.36,1.7-.81,1.7s-.8-.76-.8-1.7.36-1.7.8-1.7S416.4,295.2,416.4,296.14Z" style="opacity:0.28"></path><path d="M419.59,287.06c0,.94-.36,1.7-.8,1.7s-.8-.76-.8-1.7.36-1.7.8-1.7S419.59,286.12,419.59,287.06Z" style="opacity:0.28"></path><ellipse cx="355.63" cy="299.78" rx="0.8" ry="1.7" style="opacity:0.28"></ellipse><path d="M349,303.59c0,.94-.36,1.71-.8,1.71s-.8-.77-.8-1.71.36-1.7.8-1.7S349,302.65,349,303.59Z" style="opacity:0.28"></path><path d="M343.16,291.06c0,.94-.35,1.7-.8,1.7s-.8-.76-.8-1.7.36-1.71.8-1.71S343.16,290.12,343.16,291.06Z" style="opacity:0.28"></path><path d="M350.25,288.85c0,.94-.36,1.7-.8,1.7s-.8-.76-.8-1.7.36-1.71.8-1.71S350.25,287.91,350.25,288.85Z" style="opacity:0.28"></path><path d="M328.75,275.08c0,.94-.36,1.7-.8,1.7s-.8-.76-.8-1.7.36-1.71.8-1.71S328.75,274.14,328.75,275.08Z" style="opacity:0.28"></path><path d="M405,301.78c0,.94-.36,1.7-.8,1.7s-.8-.76-.8-1.7.35-1.71.8-1.71S405,300.84,405,301.78Z" style="opacity:0.28"></path><path d="M419.3,315c0,.94-.36,1.7-.8,1.7s-.8-.76-.8-1.7.36-1.71.8-1.71S419.3,314,419.3,315Z" style="opacity:0.28"></path><path d="M399,290.33c0,.94-.36,1.7-.8,1.7s-.8-.76-.8-1.7.36-1.7.8-1.7S399,289.39,399,290.33Z" style="opacity:0.28"></path></g><g id="freepik--tofu-1--inject-481"><ellipse cx="182.92" cy="268.43" rx="108.4" ry="60.07" style="opacity:0.18"></ellipse><ellipse cx="178.68" cy="266.12" rx="55.48" ry="30.55" style="fill:#FF725E;stroke:#263238;stroke-linecap:round;stroke-linejoin:round"></ellipse><path d="M323,166.53H284.71c-20.07-25.49-60-42.87-106-42.87s-86,17.38-106,42.87H34.38C38.63,194.84,69.48,237,69.48,237c18.83,27.8,60.63,47.14,109.18,47.14s90.4-19.36,109.21-47.18v0S318.73,194.84,323,166.53Z" style="fill:#263238;stroke:#263238;stroke-linecap:round;stroke-linejoin:round"></path><ellipse cx="178.66" cy="161.61" rx="144.29" ry="73.95" style="fill:#FF725E;stroke:#263238;stroke-linecap:round;stroke-linejoin:round"></ellipse><ellipse cx="178.66" cy="160.82" rx="140.56" ry="71.92" style="fill:#FF725E;stroke:#263238;stroke-linecap:round;stroke-linejoin:round"></ellipse><path d="M178.66,232.74c64.75,0,119.27-22.41,135.58-52.89l-42.58-51.64-114-7.66L83.5,115.28,53.82,142.09l17.71,57-1.59,7.34C95.72,222.48,134.85,232.74,178.66,232.74Z" style="fill:#263238;stroke:#263238;stroke-linecap:round;stroke-linejoin:round"></path><path d="M215.38,79s-26.9-12.77-28.8-12.77-5.71,8.15-6.52,10.33-2.72,4.07-4.08,5.7-5.16,7.88-5.16,7.88l-3.8,6s-3,.82-1.64,3.53-5.16,31-5.16,31l73.64,29.89s3.53,1.63,5.43-6,19.84-55.43,19.56-57.06S215.38,79,215.38,79Z" style="fill:#d6d6d6;stroke:#263238;stroke-linecap:round;stroke-linejoin:round"></path><path d="M202,102s2.43-15.79-2.19-30.85-11.65-31.57-13.35-42.74-2.19-14.57-2.19-14.57-3.16,10.2.24,25.5S194.45,71,195.91,77s2.91,17.73,2.18,23.32a40.26,40.26,0,0,1-1.45,7.52s-20.4-18-30.36-28.65-20.89-21.62-26.47-26.72-9.72-9.22-9.72-9.22,13.12,21.12,25,31.32,21.61,22.1,26.47,26.23,14.49,16.37,14.49,16.37S200.52,108.35,202,102Z" style="fill:#FF725E;stroke:#263238;stroke-linecap:round;stroke-linejoin:round"></path><path d="M109.53,128.92c-1.94.28-22.43,2.22-22.43,2.22s-27.41,13.85-31,16.34-16.34,7.2-15,10.52c1.19,2.86,19.37,35.6,25.14,45.95,2,1.39,4.92,3.37,7,4.72a2,2,0,0,0,.58-.27c1.11-.83,39.88-12.74,39.88-12.74l28.52-24.37S111.47,128.65,109.53,128.92Z" style="fill:#fff;stroke:#263238;stroke-linecap:round;stroke-linejoin:round"></path><path d="M86,134.19,116.18,191l23.51-19.7-30.28-40.72-21.9,1.62S85.51,132.84,86,134.19Z" style="fill:#d6d6d6;stroke:#263238;stroke-linecap:round;stroke-linejoin:round"></path><path d="M75.81,170.17a.68.68,0,1,1,.56-.77A.68.68,0,0,1,75.81,170.17Z" style="fill:#fff;stroke:#263238;stroke-linecap:round;stroke-linejoin:round"></path><path d="M82.86,183.24a1.43,1.43,0,1,1,1.2-1.64A1.43,1.43,0,0,1,82.86,183.24Z" style="fill:#fff;stroke:#263238;stroke-linecap:round;stroke-linejoin:round"></path><path d="M83.88,169.43a1.18,1.18,0,1,1,1-1.35A1.17,1.17,0,0,1,83.88,169.43Z" style="fill:#fff;stroke:#263238;stroke-linecap:round;stroke-linejoin:round"></path><path d="M79.68,175.88a.93.93,0,1,1,.77-1.06A.93.93,0,0,1,79.68,175.88Z" style="fill:#fff;stroke:#263238;stroke-linecap:round;stroke-linejoin:round"></path><path d="M72,186.64a.93.93,0,1,1,.78-1.06A.93.93,0,0,1,72,186.64Z" style="fill:#fff;stroke:#263238;stroke-linecap:round;stroke-linejoin:round"></path><path d="M78.08,153.43a.76.76,0,1,1-.23-1.5.76.76,0,0,1,.23,1.5Z" style="fill:#fff;stroke:#263238;stroke-linecap:round;stroke-linejoin:round"></path><path d="M82.77,160.56a.76.76,0,1,1,.63-.87A.77.77,0,0,1,82.77,160.56Z" style="fill:#fff;stroke:#263238;stroke-linecap:round;stroke-linejoin:round"></path><path d="M77.62,142.75a.93.93,0,0,1-1.06-.78.93.93,0,1,1,1.06.78Z" style="fill:#fff;stroke:#263238;stroke-linecap:round;stroke-linejoin:round"></path><path d="M106.29,73.14s-8.25,11.17-9,12.14-5.83,4.13-5.83,8.26-.48,39.34,0,40.55,16.76-7.53,16.76-7.53l-1.7-49Z" style="fill:#f0f0f0;stroke:#263238;stroke-linecap:round;stroke-linejoin:round"></path><path d="M91.48,134.09s61,1.46,62.66.73,9-7.77,9-7.77l-54.88-.49Z" style="fill:#bababa;stroke:#263238;stroke-linecap:round;stroke-linejoin:round"></path><path d="M106.29,73.14s19.68,2.18,23.32,2.18,30.11,1,32,2,1.7,3.4,1.7,4.12,2.19,45.66-.24,45.66-54.88-.49-54.88-.49Z" style="fill:#fff;stroke:#263238;stroke-linecap:round;stroke-linejoin:round"></path><path d="M325.42,149.12s-29.07,47.28-30.16,48.37-1.87,3.53-3.8,3.8-41.3-52.44-41.3-52.44l32.61-39.4L308,130.92S326.51,147.22,325.42,149.12Z" style="fill:#d6d6d6;stroke:#263238;stroke-linecap:round;stroke-linejoin:round"></path><line x1="285.48" y1="115.7" x2="320.26" y2="144.51" style="fill:#fff;stroke:#263238;stroke-linecap:round;stroke-linejoin:round"></line><path d="M235.07,59.24s44.5,42.57,45.87,44.22-.27,2.47-.27,4.67,5.76,12.08,3.84,14.56S268,118,268,118s-31.86-35.71-31.58-37.08S235.07,59.24,235.07,59.24Z" style="fill:#fff;stroke:#263238;stroke-linecap:round;stroke-linejoin:round"></path><path d="M239.19,76.82s-3-17.86-4.12-17.58S189.2,95.49,188.93,96.87s7.14,20.32,7.14,20.32L239.74,90Z" style="fill:#fff;stroke:#263238;stroke-linecap:round;stroke-linejoin:round"></path><path d="M239.19,76.82s-23.62,19.77-28,23.07-7.42,4.67-10.17,6.87-3.84,6-4.12,7.41a28.68,28.68,0,0,1-.82,3s34.88,33.51,37.35,36,6.68,8.24,7.51,7.69,43.31-36.53,43.58-38.17-2.2-3.57-2.2-3.57Z" style="fill:#f0f0f0;stroke:#263238;stroke-linecap:round;stroke-linejoin:round"></path><path d="M219.71,120.86A1.7,1.7,0,1,1,218,119,1.77,1.77,0,0,1,219.71,120.86Z" style="fill:#fff;stroke:#263238;stroke-linecap:round;stroke-linejoin:round"></path><path d="M230.39,108.35a1.48,1.48,0,1,1-1.46-1.21A1.35,1.35,0,0,1,230.39,108.35Z" style="fill:#fff;stroke:#263238;stroke-linecap:round;stroke-linejoin:round"></path><path d="M234,119.76a1.21,1.21,0,1,1-1.21-1.21A1.21,1.21,0,0,1,234,119.76Z" style="fill:#fff;stroke:#263238;stroke-linecap:round;stroke-linejoin:round"></path><circle cx="215.58" cy="110.29" r="1.46" style="fill:#fff;stroke:#263238;stroke-linecap:round;stroke-linejoin:round"></circle><path d="M264.15,133.49a1.22,1.22,0,1,1-1.22-1.34A1.28,1.28,0,0,1,264.15,133.49Z" style="fill:#fff;stroke:#263238;stroke-linecap:round;stroke-linejoin:round"></path><path d="M221.46,229.33c11-3.48,26.59-8.82,26.59-8.82L220,164.65s-29,16.54-28.29,18,14,40.56,18.18,48.31Q215.77,230.25,221.46,229.33Z" style="fill:#d6d6d6;stroke:#263238;stroke-linecap:round;stroke-linejoin:round"></path><path d="M261.48,143.55s-42,20.14-41.48,21.1,26.61,52.5,27.33,54.18-1,.72.72,1.68,41.48-17.74,41.48-18.94S261.48,143.55,261.48,143.55Z" style="fill:#fff;stroke:#263238;stroke-linecap:round;stroke-linejoin:round"></path><path d="M227.54,203.79c.24.88.12,1.68-.27,1.79s-.91-.52-1.15-1.4-.12-1.69.27-1.8S227.3,202.9,227.54,203.79Z" style="fill:#fff;stroke:#263238;stroke-linecap:round;stroke-linejoin:round"></path><path d="M222.58,188.74c.22.8.11,1.53-.24,1.62s-.82-.47-1-1.26-.12-1.53.24-1.63S222.36,187.94,222.58,188.74Z" style="fill:#fff;stroke:#263238;stroke-linecap:round;stroke-linejoin:round"></path><path d="M218.07,200.86c.22.8.11,1.52-.24,1.62s-.82-.47-1-1.27-.11-1.52.24-1.62S217.85,200.06,218.07,200.86Z" style="fill:#fff;stroke:#263238;stroke-linecap:round;stroke-linejoin:round"></path><path d="M241.48,214.68c.22.8.11,1.53-.24,1.62s-.82-.47-1.05-1.26-.11-1.53.25-1.63S241.26,213.88,241.48,214.68Z" style="fill:#fff;stroke:#263238;stroke-linecap:round;stroke-linejoin:round"></path><path d="M237.06,211.36c.22.8.11,1.53-.25,1.63s-.82-.47-1-1.27-.11-1.53.24-1.63S236.84,210.56,237.06,211.36Z" style="fill:#fff;stroke:#263238;stroke-linecap:round;stroke-linejoin:round"></path><path d="M248.58,167.77a1.39,1.39,0,1,1-1.38-1.39A1.38,1.38,0,0,1,248.58,167.77Z" style="fill:#fff;stroke:#263238;stroke-linecap:round;stroke-linejoin:round"></path><path d="M234.75,166.29a1,1,0,1,1-1-.83A.93.93,0,0,1,234.75,166.29Z" style="fill:#fff;stroke:#263238;stroke-linecap:round;stroke-linejoin:round"></path><path d="M241.76,160.3c0,.31-.37.56-.83.56s-.83-.25-.83-.56.37-.55.83-.55S241.76,160,241.76,160.3Z" style="fill:#fff;stroke:#263238;stroke-linecap:round;stroke-linejoin:round"></path><path d="M242.68,173.11a1.2,1.2,0,1,1-1.2-1.2A1.2,1.2,0,0,1,242.68,173.11Z" style="fill:#fff;stroke:#263238;stroke-linecap:round;stroke-linejoin:round"></path><path d="M245.08,184a1.33,1.33,0,1,1-1.29-1A1.18,1.18,0,0,1,245.08,184Z" style="fill:#fff;stroke:#263238;stroke-linecap:round;stroke-linejoin:round"></path><ellipse cx="265.07" cy="165.92" rx="1.01" ry="1.2" style="fill:#fff;stroke:#263238;stroke-linecap:round;stroke-linejoin:round"></ellipse><path d="M194.94,102.64s8.78,29.6,8.94,32.3-1.57,46.72-1.57,46.72l-10.06-22.6Z" style="fill:#fff;stroke:#263238;stroke-linecap:round;stroke-linejoin:round"></path><path d="M126.51,164.28S135.8,184.66,137,185s64.41-2.4,65.31-3.3-6.89-22.77-6.89-22.77Z" style="fill:#d6d6d6;stroke:#263238;stroke-linecap:round;stroke-linejoin:round"></path><path d="M128.91,108s-3.6,53.93-2.4,56.32,5.09.3,5.09.3,62.32-4.49,63.82-5.69.9-4.79.9-5.69-.14-48-1.38-50.56a4.44,4.44,0,0,0-5-2.14c-2.32.84-54.72,5.06-57.12,5.06S128.61,105.86,128.91,108Z" style="fill:#fff;stroke:#263238;stroke-linecap:round;stroke-linejoin:round"></path><path d="M169.65,116.22a.68.68,0,0,1-.68.67.68.68,0,0,1,0-1.35A.68.68,0,0,1,169.65,116.22Z" style="fill:#fff;stroke:#263238;stroke-linecap:round;stroke-linejoin:round"></path><path d="M183.65,111.24a1.44,1.44,0,1,1-1.44-1.43A1.44,1.44,0,0,1,183.65,111.24Z" style="fill:#fff;stroke:#263238;stroke-linecap:round;stroke-linejoin:round"></path><path d="M170.15,108.12a1.18,1.18,0,1,1-1.18-1.18A1.18,1.18,0,0,1,170.15,108.12Z" style="fill:#fff;stroke:#263238;stroke-linecap:round;stroke-linejoin:round"></path><path d="M175.89,113.26a.93.93,0,1,1-.93-.92A.93.93,0,0,1,175.89,113.26Z" style="fill:#fff;stroke:#263238;stroke-linecap:round;stroke-linejoin:round"></path><path d="M185.33,122.54a.93.93,0,1,1-.93-.93A.93.93,0,0,1,185.33,122.54Z" style="fill:#fff;stroke:#263238;stroke-linecap:round;stroke-linejoin:round"></path><circle cx="152.69" cy="111.41" r="0.76" style="fill:#fff;stroke:#263238;stroke-linecap:round;stroke-linejoin:round"></circle><circle cx="160.45" cy="107.87" r="0.76" style="fill:#fff;stroke:#263238;stroke-linecap:round;stroke-linejoin:round"></circle><path d="M142.83,110.23a.93.93,0,1,1-.93-.93A.93.93,0,0,1,142.83,110.23Z" style="fill:#fff;stroke:#263238;stroke-linecap:round;stroke-linejoin:round"></path><path d="M178.66,232.74c4.09,0,8.12-.12,12.13-.29,2.28-10.71,7.41-36.37,7.9-38.15.61-2.24-.41-9.78-.62-12S181.16,178,181.16,178,161,174.33,150,172.29s-28.93-5.09-28.93-5.09a27,27,0,0,1-2.45,3.66c-.81.82-24,46.87-24,46.87s42.37,8.93,70.57,14.67C169.59,232.62,174.09,232.74,178.66,232.74Z" style="fill:#fff;stroke:#263238;stroke-linecap:round;stroke-linejoin:round"></path><line x1="189.78" y1="228.84" x2="196.24" y2="198.17" style="fill:#fff;stroke:#263238;stroke-linecap:round;stroke-linejoin:round"></line><path d="M151.61,218.24c0,.73-1.09,1.33-2.44,1.33s-2.45-.6-2.45-1.33,1.1-1.32,2.45-1.32S151.61,217.51,151.61,218.24Z" style="fill:#fff;stroke:#263238;stroke-linecap:round;stroke-linejoin:round"></path><path d="M164.65,223.64a1.89,1.89,0,1,1-1.83-1.42A1.67,1.67,0,0,1,164.65,223.64Z" style="fill:#fff;stroke:#263238;stroke-linecap:round;stroke-linejoin:round"></path><path d="M171.79,223.13a1,1,0,1,1-1-1.12A1.07,1.07,0,0,1,171.79,223.13Z" style="fill:#fff;stroke:#263238;stroke-linecap:round;stroke-linejoin:round"></path><path d="M169.14,211.21a1.12,1.12,0,1,1-1.12-1A1.07,1.07,0,0,1,169.14,211.21Z" style="fill:#fff;stroke:#263238;stroke-linecap:round;stroke-linejoin:round"></path><path d="M128.18,192.87c0,.56-.87,1-1.94,1s-1.93-.46-1.93-1,.86-1,1.93-1S128.18,192.31,128.18,192.87Z" style="fill:#fff;stroke:#263238;stroke-linecap:round;stroke-linejoin:round"></path><ellipse cx="121.25" cy="206.42" rx="2.85" ry="1.73" style="fill:#fff;stroke:#263238;stroke-linecap:round;stroke-linejoin:round"></ellipse><path d="M133.88,213.35c0,.4-.59.71-1.32.71s-1.32-.31-1.32-.71.59-.71,1.32-.71S133.88,213,133.88,213.35Z" style="fill:#fff;stroke:#263238;stroke-linecap:round;stroke-linejoin:round"></path><ellipse cx="131.44" cy="218.14" rx="2.45" ry="1.43" style="fill:#fff;stroke:#263238;stroke-linecap:round;stroke-linejoin:round"></ellipse></g></svg>
